<svg xmlns="http://www.w3.org/2000/svg" viewBox="0 0 900 520" role="img" aria-label="Observability dashboard illustration">
<defs>
  <linearGradient id="bg" x1="0" x2="1" y1="0" y2="1"><stop stop-color="#061a40"/><stop offset="1" stop-color="#0b3b64"/></linearGradient>
  <linearGradient id="accent" x1="0" x2="1"><stop stop-color="#12a3ff"/><stop offset=".6" stop-color="#20c676"/><stop offset="1" stop-color="#e4b400"/></linearGradient>
</defs>
<rect width="900" height="520" rx="34" fill="url(#bg)"/>
<rect x="58" y="60" width="784" height="400" rx="26" fill="#092452" stroke="#17406e"/>
<rect x="88" y="96" width="190" height="120" rx="18" fill="#0e3268"/>
<rect x="306" y="96" width="246" height="120" rx="18" fill="#0e3268"/>
<rect x="580" y="96" width="232" height="120" rx="18" fill="#0e3268"/>
<rect x="88" y="246" width="354" height="170" rx="18" fill="#0e3268"/>
<rect x="472" y="246" width="340" height="170" rx="18" fill="#0e3268"/>
<path d="M116 174c42-62 79 46 132-20" fill="none" stroke="#19a3ff" stroke-width="9" stroke-linecap="round"/>
<path d="M333 174h196" stroke="#20c676" stroke-width="12" stroke-linecap="round"/>
<path d="M333 142h130" stroke="#e4b400" stroke-width="12" stroke-linecap="round"/>
<circle cx="696" cy="156" r="42" fill="none" stroke="url(#accent)" stroke-width="16"/>
<path d="M140 367l48-50l58 36l55-72l83 78" fill="none" stroke="url(#accent)" stroke-width="10" stroke-linecap="round"/>
<g fill="#b7d5ff">
  <circle cx="140" cy="367" r="7"/><circle cx="188" cy="317" r="7"/><circle cx="246" cy="353" r="7"/><circle cx="301" cy="281" r="7"/><circle cx="384" cy="359" r="7"/>
</g>
<g fill="#b7d5ff">
  <rect x="510" y="292" width="250" height="12" rx="6"/>
  <rect x="510" y="328" width="190" height="12" rx="6"/>
  <rect x="510" y="364" width="224" height="12" rx="6"/>
</g>
<text x="88" y="74" fill="#d9ecff" font-family="Inter, Arial" font-size="22" font-weight="700">Azure Observability Report</text>
</svg>